<svg 
 xmlns="http://www.w3.org/2000/svg"
 xmlns:xlink="http://www.w3.org/1999/xlink"
 width="30px" height="15px">
<path fill-rule="evenodd"  fill="rgb(239, 87, 55)"
 d="M28.500,9.000 L1.500,9.000 C0.672,9.000 -0.000,8.328 -0.000,7.500 C-0.000,6.671 0.672,6.000 1.500,6.000 L28.500,6.000 C29.328,6.000 30.000,6.671 30.000,7.500 C30.000,8.328 29.328,9.000 28.500,9.000 ZM28.500,3.000 L16.500,3.000 C15.672,3.000 15.000,2.328 15.000,1.500 C15.000,0.672 15.672,-0.000 16.500,-0.000 L28.500,-0.000 C29.328,-0.000 30.000,0.672 30.000,1.500 C30.000,2.328 29.328,3.000 28.500,3.000 ZM11.500,12.000 L28.500,12.000 C29.328,12.000 30.000,12.671 30.000,13.500 C30.000,14.328 29.328,15.000 28.500,15.000 L11.500,15.000 C10.672,15.000 10.000,14.328 10.000,13.500 C10.000,12.671 10.672,12.000 11.500,12.000 Z"/>
</svg>